<svg width="32" height="32" fill="none" xmlns="http://www.w3.org/2000/svg"><rect width="32" height="32" rx="16" fill="#fff" fill-opacity=".25"/><path d="m16 17.833-3.75 3.75c-.25.25-.556.375-.917.375-.36 0-.666-.125-.916-.375a1.247 1.247 0 0 1-.375-.916c0-.361.125-.667.375-.917l3.75-3.75-3.75-3.75a1.247 1.247 0 0 1-.375-.917c0-.36.125-.666.375-.916s.555-.375.916-.375.667.125.917.375l3.75 3.75 3.75-3.75c.25-.25.556-.375.917-.375.36 0 .666.125.916.375s.375.555.375.916-.125.667-.375.917L17.833 16l3.75 3.75c.25.25.375.556.375.917 0 .36-.125.666-.375.916s-.555.375-.916.375-.667-.125-.917-.375L16 17.833Z" fill="#FEFEFE"/></svg>